<svg width="36" height="36" viewBox="0 0 36 36" fill="none" xmlns="http://www.w3.org/2000/svg">
<g id="List &#226;&#134;&#146; Item &#226;&#134;&#146; Link - Instagram" clip-path="url(#clip0_7_1226)">
<path id="Vector" d="M17.63 3.8645C19.977 3.8645 21.5094 3.8702 22.2272 3.88159C22.9449 3.89298 23.771 3.92147 24.7052 3.96704C25.5483 4.01261 26.2205 4.09806 26.7218 4.22339C27.2231 4.34871 27.6333 4.46834 27.9523 4.58228C28.3624 4.74178 28.7213 4.92407 29.0289 5.12915C29.3365 5.33423 29.6499 5.58488 29.9689 5.8811C30.2651 6.20011 30.5157 6.51343 30.7208 6.82104C30.9259 7.12866 31.1082 7.48755 31.2677 7.89771C31.3816 8.21671 31.5013 8.62687 31.6266 9.12817C31.7519 9.62948 31.8374 10.3017 31.8829 11.1448C31.9285 12.079 31.957 12.905 31.9684 13.6228C31.9798 14.3406 31.9855 15.873 31.9855 18.22C31.9855 20.567 31.9798 22.0994 31.9684 22.8171C31.957 23.5349 31.9285 24.3609 31.8829 25.2952C31.8374 26.1383 31.7519 26.8105 31.6266 27.3118C31.5013 27.8131 31.3816 28.2232 31.2677 28.5422C31.1082 28.9524 30.9259 29.3113 30.7208 29.6189C30.5157 29.9265 30.2651 30.2398 29.9689 30.5588C29.6499 30.8551 29.3365 31.1057 29.0289 31.3108C28.7213 31.5159 28.3624 31.6982 27.9523 31.8577C27.6333 31.9716 27.2231 32.0912 26.7218 32.2166C26.2205 32.3419 25.5483 32.4273 24.7052 32.4729C23.771 32.5185 22.9449 32.547 22.2272 32.5583C21.5094 32.5697 19.977 32.5754 17.63 32.5754C15.283 32.5754 13.7506 32.5697 13.0328 32.5583C12.3151 32.547 11.4891 32.5185 10.5548 32.4729C9.71171 32.4273 9.03951 32.3419 8.53821 32.2166C8.03691 32.0912 7.62675 31.9716 7.30774 31.8577C6.89758 31.6982 6.5387 31.5159 6.23108 31.3108C5.92346 31.1057 5.61015 30.8551 5.29114 30.5588C4.99491 30.2398 4.74426 29.9265 4.53918 29.6189C4.33411 29.3113 4.15181 28.9524 3.99231 28.5422C3.87838 28.2232 3.75875 27.8131 3.63342 27.3118C3.5081 26.8105 3.42265 26.1383 3.37708 25.2952C3.3315 24.3609 3.30302 23.5349 3.29163 22.8171C3.28023 22.0994 3.27454 20.567 3.27454 18.22C3.27454 15.873 3.28023 14.3406 3.29163 13.6228C3.30302 12.905 3.3315 12.079 3.37708 11.1448C3.42265 10.3017 3.5081 9.62948 3.63342 9.12817C3.75875 8.62687 3.87838 8.21671 3.99231 7.89771C4.15181 7.48755 4.33411 7.12866 4.53918 6.82104C4.74426 6.51343 4.99491 6.20011 5.29114 5.8811C5.61015 5.58488 5.92346 5.33423 6.23108 5.12915C6.5387 4.92407 6.89758 4.74178 7.30774 4.58228C7.62675 4.46834 8.03691 4.34871 8.53821 4.22339C9.03951 4.09806 9.71171 4.01261 10.5548 3.96704C11.4891 3.92147 12.3151 3.89298 13.0328 3.88159C13.7506 3.8702 15.283 3.8645 17.63 3.8645ZM17.63 0.719971C15.2602 0.719971 13.6993 0.725666 12.9474 0.737061C12.1954 0.748455 11.3523 0.776936 10.4181 0.82251C9.48385 0.868084 8.68062 0.959229 8.00842 1.09595C7.33622 1.23267 6.72668 1.41496 6.17981 1.64282C5.58736 1.87069 5.04049 2.14412 4.53918 2.46313C4.03788 2.78215 3.54797 3.18091 3.06946 3.65942C2.59094 4.13794 2.19218 4.62785 1.87317 5.12915C1.55416 5.63045 1.28072 6.17733 1.05286 6.76978C0.824992 7.31665 0.6427 7.92619 0.505981 8.59839C0.369263 9.27059 0.278117 10.0738 0.232544 11.0081C0.186971 11.9423 0.158488 12.7854 0.147095 13.5374C0.135701 14.2893 0.130005 15.8502 0.130005 18.22C0.130005 20.5898 0.135701 22.1506 0.147095 22.9026C0.158488 23.6545 0.186971 24.4976 0.232544 25.4319C0.278117 26.3661 0.369263 27.1694 0.505981 27.8416C0.6427 28.5138 0.824992 29.1233 1.05286 29.6702C1.28072 30.2626 1.55416 30.8095 1.87317 31.3108C2.19218 31.8121 2.59094 32.302 3.06946 32.7805C3.54797 33.259 4.03788 33.6578 4.53918 33.9768C5.04049 34.2958 5.58736 34.5693 6.17981 34.7971C6.72668 35.025 7.33622 35.2073 8.00842 35.344C8.68062 35.4807 9.48385 35.5719 10.4181 35.6174C11.3523 35.663 12.1954 35.6915 12.9474 35.7029C13.6993 35.7143 15.2602 35.72 17.63 35.72C19.9998 35.72 21.5607 35.7143 22.3126 35.7029C23.0646 35.6915 23.9077 35.663 24.8419 35.6174C25.7762 35.5719 26.5794 35.4807 27.2516 35.344C27.9238 35.2073 28.5333 35.025 29.0802 34.7971C29.6726 34.5693 30.2195 34.2958 30.7208 33.9768C31.2221 33.6578 31.712 33.259 32.1906 32.7805C32.6691 32.302 33.0678 31.8121 33.3868 31.3108C33.7059 30.8095 33.9793 30.2626 34.2072 29.6702C34.435 29.1233 34.6173 28.5138 34.754 27.8416C34.8907 27.1694 34.9819 26.3661 35.0275 25.4319C35.073 24.4976 35.1015 23.6545 35.1129 22.9026C35.1243 22.1506 35.13 20.5898 35.13 18.22C35.13 15.8502 35.1243 14.2893 35.1129 13.5374C35.1015 12.7854 35.073 11.9423 35.0275 11.0081C34.9819 10.0738 34.8907 9.27059 34.754 8.59839C34.6173 7.92619 34.435 7.31665 34.2072 6.76978C33.9793 6.17733 33.7059 5.63045 33.3868 5.12915C33.0678 4.62785 32.6691 4.13794 32.1906 3.65942C31.712 3.18091 31.2221 2.78215 30.7208 2.46313C30.2195 2.14412 29.6726 1.87069 29.0802 1.64282C28.5333 1.41496 27.9238 1.23267 27.2516 1.09595C26.5794 0.959229 25.7762 0.868084 24.8419 0.82251C23.9077 0.776936 23.0646 0.748455 22.3126 0.737061C21.5607 0.725666 19.9998 0.719971 17.63 0.719971ZM17.63 9.23071C16.3995 9.23071 15.2374 9.46997 14.1437 9.94849C13.0499 10.4042 12.0929 11.0422 11.2726 11.8625C10.4523 12.6829 9.81425 13.6399 9.35852 14.7336C8.88 15.8274 8.64075 16.9895 8.64075 18.22C8.64075 19.4504 8.88 20.6125 9.35852 21.7063C9.81425 22.8 10.4523 23.7571 11.2726 24.5774C12.0929 25.3977 13.0499 26.0357 14.1437 26.4915C15.2374 26.97 16.3995 27.2092 17.63 27.2092C18.8605 27.2092 20.0226 26.97 21.1163 26.4915C22.2101 26.0357 23.1671 25.3977 23.9874 24.5774C24.8077 23.7571 25.4458 22.8 25.9015 21.7063C26.38 20.6125 26.6193 19.4504 26.6193 18.22C26.6193 16.9895 26.38 15.8274 25.9015 14.7336C25.4458 13.6399 24.8077 12.6829 23.9874 11.8625C23.1671 11.0422 22.2101 10.4042 21.1163 9.94849C20.0226 9.46997 18.8605 9.23071 17.63 9.23071ZM17.63 24.0647C16.0122 24.0647 14.6336 23.495 13.4943 22.3557C12.3549 21.2164 11.7853 19.8378 11.7853 18.22C11.7853 16.6021 12.3549 15.2236 13.4943 14.0842C14.6336 12.9449 16.0122 12.3752 17.63 12.3752C19.2478 12.3752 20.6264 12.9449 21.7657 14.0842C22.9051 15.2236 23.4747 16.6021 23.4747 18.22C23.4747 19.8378 22.9051 21.2164 21.7657 22.3557C20.6264 23.495 19.2478 24.0647 17.63 24.0647ZM29.0802 8.88892C29.0802 9.45858 28.8751 9.94849 28.465 10.3586C28.0548 10.7688 27.5535 10.9739 26.9611 10.9739C26.3914 10.9739 25.9015 10.7688 25.4913 10.3586C25.0812 9.94849 24.8761 9.45858 24.8761 8.88892C24.8761 8.29647 25.0812 7.79517 25.4913 7.38501C25.9015 6.97485 26.3914 6.76978 26.9611 6.76978C27.5535 6.76978 28.0548 6.97485 28.465 7.38501C28.8751 7.79517 29.0802 8.29647 29.0802 8.88892Z" fill="white"/>
</g>
<defs>
<clipPath id="clip0_7_1226">
<rect width="35" height="35" fill="white" transform="matrix(1 0 0 -1 0.130005 35.72)"/>
</clipPath>
</defs>
</svg>
