<svg width="36" height="36" viewBox="0 0 36 36" fill="none" xmlns="http://www.w3.org/2000/svg">
<g id="List &#226;&#134;&#146; Item &#226;&#134;&#146; Link - LinkedIn" clip-path="url(#clip0_7_1224)">
<path id="Vector" d="M1.03833 9.46997H7.53247V33.5325H1.03833V9.46997ZM20.8625 9.46997C19.6549 9.46997 18.7149 9.69214 18.0427 10.1365C17.3705 10.5808 16.7838 10.9967 16.2825 11.384V9.46997H9.75415V33.5325H16.2825V18.3909C16.2825 18.3909 16.3907 17.8896 16.6072 16.887C16.8236 15.8844 17.8433 15.3831 19.6663 15.3831C20.76 15.3831 21.5632 15.6622 22.0759 16.2205C22.5886 16.7787 22.845 17.5022 22.845 18.3909V33.5325H29.7151V18.5959C29.7151 16.5452 29.3619 14.9159 28.6555 13.7083C27.9491 12.5006 27.1117 11.5834 26.1433 10.9568C25.1749 10.3302 24.1894 9.9257 23.1868 9.74341C22.1842 9.56112 21.4094 9.46997 20.8625 9.46997ZM0.969971 4.00122C0.969971 4.91268 1.28898 5.68742 1.927 6.32544C2.56502 6.96346 3.33976 7.28247 4.25122 7.28247C5.16268 7.28247 5.93742 6.96346 6.57544 6.32544C7.21346 5.68742 7.53247 4.91268 7.53247 4.00122C7.53247 3.08976 7.21346 2.31502 6.57544 1.677C5.93742 1.03898 5.16268 0.719971 4.25122 0.719971C3.33976 0.719971 2.56502 1.03898 1.927 1.677C1.28898 2.31502 0.969971 3.08976 0.969971 4.00122Z" fill="white"/>
</g>
<defs>
<clipPath id="clip0_7_1224">
<rect width="35" height="35" fill="white" transform="matrix(1 0 0 -1 0.969971 35.72)"/>
</clipPath>
</defs>
</svg>
