<svg width="492" height="494" viewBox="0 0 492 494" fill="none" xmlns="http://www.w3.org/2000/svg">
    <path d="M51.5303 122.64C51.5303 122.64 132.78 -25.1399 278.2 4.30008C423.62 33.7401 417.15 147.96 413.02 163.85C408.9 179.75 377.11 232.73 318.23 230.38C259.35 228.03 223.44 182.1 194.59 150.31C165.75 118.51 107 97.9101 51.5303 122.64Z"
          fill="#85276B"/>
    <path d="M51.5303 122.64C51.5303 122.64 132.78 -25.1399 278.2 4.30008C423.62 33.7401 417.15 147.96 413.02 163.85C408.9 179.75 377.11 232.73 318.23 230.38C259.35 228.03 223.44 182.1 194.59 150.31C165.75 118.51 107 97.9101 51.5303 122.64Z"
          fill="#85276B"/>
    <path d="M458.32 160.5C458.32 160.5 543.03 306.32 442.82 415.73C342.61 525.14 248.09 460.69 236.59 448.96C225.09 437.23 196.09 382.67 228.47 333.44C260.85 284.21 318.72 277.12 360.83 268.8C402.95 260.48 450.9 220.78 458.32 160.5Z"
          fill="#85276B"/>
    <path d="M458.32 160.5C458.32 160.5 543.03 306.32 442.82 415.73C342.61 525.14 248.09 460.69 236.59 448.96C225.09 437.23 196.09 382.67 228.47 333.44C260.85 284.21 318.72 277.12 360.83 268.8C402.95 260.48 450.9 220.78 458.32 160.5Z"
          fill="#85276B"/>
    <path d="M212.28 493.75C212.28 493.75 43.9102 484.2 7.73016 340.31C-28.4498 196.42 77.3902 152.99 93.5102 149.85C109.63 146.71 171.15 152.53 194.42 206.66C217.69 260.79 191.76 313 175.52 352.74C159.29 392.49 166.04 454.37 212.28 493.75Z"
          fill="#85276B"/>
    <path d="M212.28 493.75C212.28 493.75 43.9102 484.2 7.73016 340.31C-28.4498 196.42 77.3902 152.99 93.5102 149.85C109.63 146.71 171.15 152.53 194.42 206.66C217.69 260.79 191.76 313 175.52 352.74C159.29 392.49 166.04 454.37 212.28 493.75Z"
          fill="#85276B"/>
</svg>
