<svg width="36" height="36" viewBox="0 0 36 36" fill="none" xmlns="http://www.w3.org/2000/svg">
<g id="List &#226;&#134;&#146; Item &#226;&#134;&#146; Link - YouTube" clip-path="url(#clip0_7_1228)">
<path id="Vector" d="M30.5632 6.2229C28.558 6.10897 26.4845 6.00643 24.3425 5.91528C22.2006 5.84692 20.0359 5.80705 17.8484 5.79565C15.6609 5.78426 13.4848 5.81274 11.3201 5.8811C9.15535 5.94946 7.04761 6.06339 4.99683 6.2229C3.74357 6.38241 2.71818 7.07739 1.92065 8.30786C1.12313 9.53833 0.678792 10.746 0.587646 11.9309C0.382568 14.3691 0.280029 16.4597 0.280029 18.2029C0.280029 19.946 0.382568 22.0367 0.587646 24.4749C0.678792 25.6597 1.11743 26.8731 1.90356 28.115C2.6897 29.3569 3.73218 30.0575 5.03101 30.217C7.08179 30.3538 9.18953 30.4563 11.3542 30.5247C13.519 30.6158 15.6951 30.6614 17.8826 30.6614C20.0701 30.6614 22.2348 30.6272 24.3767 30.5588C26.5186 30.4905 28.5808 30.3765 30.5632 30.217C31.7937 30.012 32.8134 29.2999 33.6223 28.0808C34.4312 26.8617 34.8813 25.6597 34.9724 24.4749C35.0863 23.2672 35.1661 22.1392 35.2117 21.0911C35.2572 20.0657 35.28 19.0517 35.28 18.0491C35.28 17.0465 35.2572 16.0325 35.2117 15.0071C35.1661 13.9589 35.0863 12.831 34.9724 11.6233C34.8813 10.4612 34.4768 9.28768 33.759 8.10278C33.0413 6.91789 31.976 6.29126 30.5632 6.2229ZM13.405 24.4065V11.8625L24.3425 18.1516L13.405 24.4065Z" fill="white"/>
</g>
<defs>
<clipPath id="clip0_7_1228">
<rect width="35" height="35" fill="white" transform="matrix(1 0 0 -1 0.280029 35.72)"/>
</clipPath>
</defs>
</svg>
